<svg width="360" height="99" viewBox="0 0 360 99" fill="none" xmlns="http://www.w3.org/2000/svg">
<path d="M78.6134 48.5895C78.6134 48.5895 78.6239 48.5755 78.6274 48.5684C77.0563 47.3375 75.4255 46.1872 73.8474 45.2719C66.0794 40.7689 59.7036 40.0008 52.9492 39.1872C45.3144 38.2684 37.4202 37.318 27.7935 30.6617C23.1151 27.4283 20.8356 21.056 18.798 13.4388L15.3997 29.82C13.6953 44.0584 18.9979 53.6746 30.7428 57.6305C34.2358 58.8089 37.6972 59.5103 41.0429 60.1906C49.5684 61.9196 57.6205 63.5538 61.1766 72.8299C63.1686 78.0202 62.9897 84.3118 59.5914 88.9936C58.0799 91.0733 55.5163 93.7842 53.2648 95.1975C80.3318 94.3032 87.7596 80.6259 88.3067 68.8669C88.9029 56.0559 80.8614 50.7252 78.6134 48.593V48.5895Z" fill="url(#paint0_radial_12_544)"/>
<path d="M33.1031 24.3877C41.9582 30.5109 49.0494 31.3631 56.5579 32.2679C63.393 33.092 70.4596 33.9442 78.9009 38.8365C80.5983 39.822 82.3378 41.0389 84.0036 42.3365C85.1294 40.8776 86.2832 39.4432 87.2967 37.8756C99.1609 18.9939 83.937 0.950396 65.9917 0H22.8802L22.8311 0.308616C23.8165 9.41629 26.0961 19.541 33.1066 24.3842L33.1031 24.3877Z" fill="url(#paint1_radial_12_544)"/>
<path d="M50.8445 88.6604C53.4747 85.0342 54.113 80.6785 52.5909 76.7085C49.7783 69.3754 43.3605 68.0708 35.2383 66.4225C31.7769 65.7211 28.1998 64.9952 24.4824 63.7397C16.0585 60.899 13.5756 55.407 11.0015 47.7688L0 96.1689L35.7538 96.1899C42.2032 95.706 47.6882 93.0091 50.8445 88.6604Z" fill="url(#paint2_radial_12_544)"/>
<path d="M134.455 49.2838C136.216 48.2352 137.699 46.8745 138.881 45.2122C140.477 42.9712 141.413 40.3515 141.669 37.4337C141.974 33.9372 140.943 31.1807 138.6 29.2378C136.324 27.3545 133.014 26.4006 128.756 26.4006H112.968L101.777 75.4951H119.792C123.394 75.4951 126.62 74.8498 129.377 73.5733C132.176 72.2792 134.459 70.3679 136.163 67.8954C137.86 65.43 138.874 62.428 139.175 58.9771C139.414 56.2557 138.944 53.9797 137.783 52.2157C136.97 50.9812 135.851 50.0027 134.452 49.2908L134.455 49.2838ZM132.312 42.5328C131.544 43.7357 130.534 44.7142 129.307 45.4366C128.09 46.1521 126.677 46.5133 125.102 46.5133H116.292L119.179 33.7653H127.637C129.808 33.7653 131.425 34.1897 132.442 35.0279C133.403 35.8169 133.803 36.9602 133.666 38.5138C133.54 39.9727 133.084 41.3229 132.312 42.5328ZM125.554 53.7482C127.701 53.7482 129.286 54.2181 130.268 55.144C131.225 56.0488 131.614 57.3464 131.46 59.1104C131.211 61.9721 130.159 64.1359 128.248 65.7246C126.333 67.3168 123.703 68.1269 120.438 68.1269H111.354L114.588 53.7517H125.554V53.7482Z" fill="url(#paint3_linear_12_544)"/>
<path d="M148.602 76.0352C149.272 76.0352 150.029 75.9756 150.857 75.8563C151.695 75.7336 152.547 75.5232 153.389 75.2356L153.943 75.0462L155.609 67.8639L154.15 68.3022C153.564 68.4776 153.028 68.6214 152.558 68.7266C151.642 68.93 150.625 68.9475 150.271 68.5863C150.11 68.418 150.043 68.0042 150.092 67.443L150.145 66.8328C150.156 66.7276 150.177 66.6259 150.212 66.5207L159.302 26.4006H151.713L142.507 66.8995C142.426 67.2396 142.359 67.5798 142.31 67.913C142.254 68.2532 142.216 68.5688 142.191 68.8634C141.988 71.2025 142.486 73.0051 143.678 74.2221C144.853 75.425 146.512 76.0352 148.602 76.0352Z" fill="url(#paint4_linear_12_544)"/>
<path d="M182.749 57.4832C182.122 60.2081 181.262 62.4771 180.193 64.2236C179.158 65.914 177.945 67.1695 176.588 67.955C175.23 68.7406 173.652 69.1404 171.892 69.1404C170.131 69.1404 168.942 68.7161 168.181 67.8393C167.42 66.9661 167.126 65.4651 167.308 63.3749C167.357 62.8208 167.42 62.3403 167.494 61.9476C167.578 61.5127 167.666 61.0217 167.75 60.5237L172.386 40.2147H164.727L159.786 62.0703C159.698 62.5648 159.614 63.0347 159.53 63.4836C159.438 63.9606 159.372 64.4726 159.326 64.9986C159.017 68.5477 159.786 71.3077 161.609 73.198C163.422 75.0778 166.133 76.0317 169.665 76.0317C172.481 76.0317 175.146 75.3653 177.584 74.0467C178.152 73.7381 178.699 73.3944 179.221 73.0121L178.65 75.4881H186.239L194.329 40.2112H186.667L182.742 57.4796L182.749 57.4832Z" fill="url(#paint5_linear_12_544)"/>
<path d="M223.946 69.5753L219.331 64.4201L218.605 65.0689C217.132 66.384 215.624 67.3694 214.123 67.9972C212.636 68.6179 210.925 68.9336 209.031 68.9336C206.608 68.9336 204.865 68.3058 203.704 67.0117C202.54 65.7177 202.08 63.9045 202.291 61.4742L202.357 60.7202H226.243L226.496 60.0328C226.808 59.1771 227.088 58.1495 227.33 56.9817C227.572 55.8209 227.734 54.7793 227.811 53.8885C228.032 51.374 227.751 49.0208 226.983 46.8991C226.198 44.7283 224.819 42.9642 222.894 41.6526C220.965 40.341 218.346 39.6747 215.109 39.6747C212.208 39.6747 209.522 40.3059 207.113 41.5509C204.731 42.7854 202.627 44.4547 200.86 46.5133C199.106 48.5579 197.703 50.8655 196.69 53.373C195.68 55.8665 195.049 58.4582 194.821 61.0744C194.582 63.8204 194.891 66.3489 195.743 68.5864C196.613 70.8694 198.114 72.7036 200.204 74.0398C202.28 75.3654 204.994 76.0387 208.273 76.0387C211.047 76.0387 213.657 75.5723 216.027 74.65C218.391 73.7311 220.793 72.2477 223.168 70.2382L223.946 69.5789V69.5753ZM203.799 54.5093C204.304 53.2573 204.97 52.0789 205.794 50.9953C206.85 49.6065 208.144 48.4702 209.648 47.6215C211.128 46.7869 212.79 46.366 214.597 46.366C216.255 46.366 217.56 46.6817 218.479 47.3024C219.408 47.9337 220.046 48.7262 220.429 49.7222C220.818 50.7428 220.969 51.8264 220.871 52.9452C220.814 53.5764 220.751 54.1025 220.681 54.5093H203.802H203.799Z" fill="url(#paint6_linear_12_544)"/>
<path d="M265.946 45.2122C267.542 42.9677 268.478 40.3515 268.734 37.4337C269.039 33.9372 268.005 31.1807 265.662 29.2378C263.389 27.3545 260.075 26.4006 255.818 26.4006H240.029L228.839 75.4951H246.854C250.456 75.4951 253.682 74.8498 256.439 73.5733C259.237 72.2792 261.52 70.3679 263.225 67.8954C264.922 65.43 265.936 62.4315 266.237 58.9771C266.476 56.2557 266.006 53.9797 264.845 52.2157C264.031 50.9812 262.916 50.0027 261.513 49.2908C263.274 48.2422 264.757 46.8815 265.943 45.2192L265.946 45.2122ZM252.164 46.5168H243.354L246.24 33.7688H254.699C256.87 33.7688 258.483 34.1932 259.504 35.0314C260.465 35.8239 260.864 36.9637 260.728 38.5173C260.601 39.9727 260.145 41.3264 259.374 42.5328C258.606 43.7392 257.592 44.7142 256.365 45.4366C255.148 46.152 253.735 46.5133 252.16 46.5133L252.164 46.5168ZM252.616 53.7482C254.762 53.7482 256.347 54.2181 257.329 55.144C258.287 56.0488 258.676 57.3464 258.522 59.1104C258.273 61.9721 257.221 64.1359 255.309 65.7246C253.394 67.3168 250.764 68.1269 247.499 68.1269H238.416L241.65 53.7517H252.616V53.7482Z" fill="url(#paint7_linear_12_544)"/>
<path d="M275.113 74.0363C277.19 75.3619 279.904 76.0352 283.183 76.0352C285.957 76.0352 288.563 75.5688 290.937 74.6465C293.301 73.7276 295.703 72.2442 298.074 70.2347L298.852 69.5753L294.241 64.4201L293.515 65.0689C292.042 66.384 290.534 67.3694 289.033 67.9972C287.546 68.6179 285.834 68.9336 283.94 68.9336C281.514 68.9336 279.774 68.3058 278.613 67.0117C277.449 65.7177 276.99 63.9045 277.2 61.4742L277.267 60.7202H301.153L301.405 60.0328C301.714 59.1841 301.998 58.1566 302.24 56.9817C302.478 55.8279 302.64 54.7863 302.72 53.8885C302.941 51.374 302.661 49.0208 301.893 46.8991C301.104 44.7283 299.729 42.9642 297.804 41.6526C295.875 40.341 293.255 39.6747 290.018 39.6747C287.118 39.6747 284.428 40.3059 282.022 41.5509C279.637 42.7854 277.537 44.4547 275.773 46.5098C274.023 48.5509 272.62 50.8585 271.603 53.3695C270.593 55.863 269.965 58.4547 269.734 61.0709C269.495 63.8169 269.804 66.3454 270.656 68.5829C271.526 70.8659 273.027 72.7036 275.117 74.0363H275.113ZM278.705 54.5093C279.21 53.2573 279.876 52.0789 280.7 50.9953C281.752 49.6065 283.05 48.4702 284.554 47.6215C286.031 46.7869 287.696 46.366 289.499 46.366C291.158 46.366 292.462 46.6817 293.381 47.3024C294.311 47.9337 294.949 48.7262 295.331 49.7222C295.724 50.7428 295.871 51.8264 295.773 52.9452C295.717 53.5694 295.654 54.0955 295.584 54.5093H278.705Z" fill="url(#paint8_linear_12_544)"/>
<path d="M320.129 68.695C318.986 69.1229 317.713 69.3438 316.349 69.3438C314.294 69.3438 312.624 68.8774 311.386 67.955C310.127 67.0222 309.303 65.8158 308.872 64.2692L308.549 63.1189L302.201 67.3238L302.472 68.0357C302.984 69.3929 303.811 70.7045 304.926 71.9285C306.056 73.1664 307.532 74.1694 309.314 74.9129C311.092 75.6564 313.238 76.0316 315.696 76.0316C318.53 76.0316 321.125 75.5126 323.412 74.4851C325.723 73.447 327.631 71.9705 329.083 70.1013C330.549 68.211 331.404 65.9701 331.625 63.438C331.832 61.0708 331.338 59.1981 330.149 57.8689C329.034 56.6204 327.561 55.6525 325.776 55.0002C324.089 54.3794 322.342 53.8569 320.606 53.4501C318.537 52.931 317.05 52.398 316.187 51.8614C315.514 51.4406 315.244 50.918 315.307 50.164C315.412 48.9506 316.03 48.0528 317.243 47.3409C318.576 46.5588 320.143 46.1625 321.897 46.1625C323.457 46.1625 324.815 46.4606 325.937 47.0463C327.003 47.6039 327.75 48.5473 328.223 49.9291L328.571 50.9426L334.343 47.4882L334.094 46.7517C333.312 44.4441 331.874 42.6626 329.816 41.4561C327.799 40.2743 325.393 39.6781 322.672 39.6781C319.95 39.6781 317.671 40.1515 315.553 41.0844C313.41 42.0278 311.649 43.3534 310.327 45.0193C308.988 46.7096 308.209 48.6946 308.016 50.9145C307.883 52.4401 308.1 53.7587 308.658 54.8248C309.201 55.8664 309.987 56.7432 310.997 57.4305C311.947 58.0758 313.024 58.6229 314.199 59.0508C315.346 59.4681 316.51 59.8398 317.674 60.159C319.217 60.5553 320.508 60.9621 321.515 61.3724C322.43 61.7476 323.107 62.193 323.528 62.6945C323.892 63.1294 324.036 63.6835 323.976 64.3919C323.892 65.3493 323.528 66.1735 322.854 66.9099C322.149 67.6815 321.237 68.2847 320.14 68.6985L320.129 68.695Z" fill="url(#paint9_linear_12_544)"/>
<path d="M346.667 64.7918L350.815 46.5659H358.58L360 40.2147H352.264L355.21 27.2844L346.551 31.605L344.587 40.2147H337.727L336.212 46.5659H343.142L338.765 65.7457C338.688 66.0859 338.622 66.4366 338.566 66.7943C338.509 67.1555 338.467 67.5062 338.436 67.8429C338.274 69.684 338.516 71.2306 339.158 72.4335C339.8 73.6505 340.757 74.5693 342.002 75.1655C343.202 75.7406 344.608 76.0317 346.179 76.0317C346.944 76.0317 347.799 75.9581 348.718 75.8178C349.613 75.6775 350.524 75.4881 351.433 75.2567L352.05 75.0988L353.639 68.2006L352.131 68.7161C351.398 68.9686 350.696 69.1475 350.047 69.2492C348.301 69.5262 347.112 69.4385 346.709 68.8564C346.411 68.425 346.298 67.6745 346.386 66.6891C346.414 66.3489 346.453 66.0192 346.505 65.7001C346.554 65.3845 346.611 65.0829 346.677 64.7883L346.667 64.7918Z" fill="url(#paint10_linear_12_544)"/>
<path d="M180.239 88.3132H174.6L175.739 83.3052H174.144L171.468 95.0326L171.454 95.1027H173.05L174.267 89.8071H179.909L178.692 95.1027H180.288L182.964 83.3753L182.978 83.3052H181.382L180.239 88.3132Z" fill="#0056A1"/>
<path d="M189.483 87.0507C189.034 86.7456 188.414 86.5878 187.646 86.5878C186.958 86.5878 186.32 86.7351 185.752 87.0297C185.184 87.3207 184.686 87.7205 184.265 88.2115C183.848 88.699 183.511 89.2531 183.265 89.8563C183.023 90.456 182.869 91.0802 182.816 91.708C182.76 92.3638 182.834 92.9635 183.034 93.4931C183.237 94.0261 183.588 94.4575 184.079 94.7696C184.566 95.0817 185.212 95.2395 185.987 95.2395C186.65 95.2395 187.274 95.1273 187.838 94.9099C188.403 94.6889 188.978 94.3347 189.55 93.8508L189.599 93.8087L188.68 92.7811L188.635 92.8232C188.252 93.1634 187.863 93.4194 187.47 93.5807C187.081 93.7456 186.632 93.8262 186.141 93.8262C185.503 93.8262 185.019 93.6509 184.707 93.3002C184.395 92.9495 184.265 92.4515 184.317 91.8097L184.335 91.6098C184.338 91.5607 184.346 91.5046 184.36 91.452H190.3L190.318 91.4099C190.392 91.2065 190.458 90.961 190.518 90.6804C190.574 90.4034 190.613 90.1509 190.634 89.937C190.686 89.3373 190.62 88.7796 190.437 88.2781C190.255 87.7731 189.932 87.3593 189.483 87.0542V87.0507ZM184.623 90.2561C184.759 89.8458 184.959 89.4635 185.222 89.1198C185.499 88.7551 185.839 88.457 186.236 88.2326C186.629 88.0116 187.07 87.8959 187.551 87.8959C187.996 87.8959 188.347 87.9836 188.6 88.1554C188.852 88.3272 189.034 88.5517 189.14 88.8252C189.245 89.1023 189.283 89.3934 189.259 89.695C189.245 89.8703 189.224 90.0141 189.206 90.1263C189.199 90.1649 189.192 90.2105 189.182 90.2561H184.626H184.623Z" fill="#0056A1"/>
<path d="M198.77 87.8362C198.745 87.7906 198.717 87.745 198.689 87.7029C198.468 87.3627 198.16 87.0857 197.774 86.8893C197.388 86.6894 196.915 86.5912 196.375 86.5912C195.733 86.5912 195.123 86.728 194.568 87.0015C194.014 87.2715 193.516 87.6503 193.085 88.1237C192.657 88.5972 192.306 89.1373 192.047 89.7335C191.787 90.3296 191.626 90.9609 191.57 91.6132C191.51 92.3111 191.588 92.9424 191.808 93.4824C192.026 94.026 192.377 94.4609 192.85 94.773C193.324 95.0851 193.906 95.2429 194.586 95.2429C195.105 95.2429 195.593 95.1553 196.038 94.9799C196.483 94.8046 196.89 94.5451 197.248 94.2119C197.272 94.1873 197.297 94.1663 197.322 94.1382L197.104 95.1097H198.633L200.523 86.7981L200.541 86.728H199.026L198.77 87.8432V87.8362ZM198.289 90.2665C198.251 90.7049 198.146 91.1363 197.97 91.5536C197.798 91.9709 197.56 92.3532 197.269 92.6934C196.978 93.03 196.634 93.3036 196.245 93.507C195.859 93.7069 195.431 93.8086 194.972 93.8086C194.547 93.8086 194.186 93.7174 193.895 93.5315C193.604 93.3492 193.387 93.0826 193.25 92.746C193.113 92.4058 193.06 91.999 193.103 91.5431C193.141 91.1047 193.25 90.6698 193.432 90.2455C193.611 89.8246 193.85 89.4424 194.141 89.1057C194.432 88.7725 194.779 88.5025 195.172 88.2991C195.564 88.0992 195.996 87.9975 196.452 87.9975C196.873 87.9975 197.23 88.0922 197.518 88.2816C197.802 88.4709 198.016 88.734 198.146 89.0671C198.279 89.4038 198.325 89.8071 198.286 90.263L198.289 90.2665Z" fill="#0056A1"/>
<path d="M203.385 92.6057L204.444 87.9485H206.362L206.636 86.721H204.721L205.419 83.6559L203.669 84.5291L203.171 86.721H201.474L201.179 87.9485H202.891L201.765 92.8863C201.747 92.967 201.73 93.0476 201.716 93.1353C201.702 93.2195 201.691 93.3036 201.684 93.3843C201.649 93.8086 201.702 94.1593 201.845 94.4294C201.989 94.7029 202.203 94.9063 202.48 95.0396C202.754 95.1729 203.08 95.2395 203.445 95.2395C203.624 95.2395 203.827 95.222 204.044 95.1869C204.262 95.1518 204.483 95.1062 204.7 95.0501L204.739 95.0396L205.04 93.728L204.942 93.763C204.749 93.8297 204.563 93.8753 204.395 93.9033C203.88 93.984 203.553 93.9454 203.413 93.742C203.318 93.6017 203.28 93.3878 203.304 93.1002C203.311 93.0126 203.322 92.9284 203.336 92.8442C203.35 92.7636 203.364 92.6829 203.382 92.6057H203.385Z" fill="#0056A1"/>
<path d="M208.589 83.3052L208.126 85.3533H209.925L210.388 83.3052H208.589Z" fill="#0056A1"/>
<path d="M206.05 95.0325L206.032 95.1027H207.565L209.487 86.7209H207.94L206.05 95.0325Z" fill="#0056A1"/>
<path d="M215.375 86.5878C214.934 86.5878 214.506 86.6579 214.099 86.7912C213.689 86.9279 213.31 87.1384 212.97 87.4154C212.893 87.4785 212.822 87.5452 212.749 87.6188L212.956 86.721H211.427L209.505 95.1028H211.051L211.988 90.982C212.233 89.937 212.605 89.1584 213.089 88.6674C213.569 88.1799 214.166 87.9345 214.86 87.9345C215.33 87.9345 215.681 88.0642 215.895 88.3167C216.112 88.5727 216.196 88.9795 216.151 89.5301C216.136 89.6739 216.122 89.8002 216.108 89.9124C216.094 90.0211 216.07 90.1369 216.035 90.2771L214.934 95.1063H216.48L217.666 89.8633C217.697 89.7406 217.725 89.6213 217.739 89.5021C217.753 89.3899 217.767 89.2706 217.778 89.1479C217.851 88.3202 217.673 87.6784 217.255 87.2436C216.838 86.8087 216.203 86.5878 215.375 86.5878Z" fill="#0056A1"/>
<path d="M225.92 88.229C225.787 87.8222 225.57 87.475 225.271 87.198C224.833 86.7947 224.219 86.5878 223.448 86.5878C222.848 86.5878 222.276 86.721 221.743 86.9876C221.214 87.2541 220.737 87.6153 220.323 88.0677C219.913 88.5166 219.573 89.0392 219.317 89.6178C219.057 90.1965 218.899 90.8137 218.843 91.4555C218.784 92.1218 218.861 92.7285 219.068 93.2581C219.274 93.7912 219.611 94.219 220.06 94.5241C220.509 94.8292 221.067 94.987 221.712 94.987C222.389 94.987 223.038 94.8082 223.641 94.4575C224.026 94.233 224.377 93.9279 224.686 93.5492L224.416 94.7801C224.268 95.457 224.023 95.9865 223.69 96.3513C223.353 96.716 222.971 96.972 222.55 97.1123C222.126 97.2561 221.701 97.3262 221.288 97.3262C220.726 97.3262 220.27 97.1719 219.934 96.8703C219.597 96.5652 219.362 96.1794 219.239 95.7235L219.218 95.6464L217.865 96.5056L217.882 96.5512C218.026 96.958 218.243 97.3262 218.528 97.6418C218.812 97.961 219.18 98.21 219.615 98.3853C220.05 98.5607 220.569 98.6483 221.154 98.6483C221.975 98.6483 222.715 98.5081 223.36 98.231C224.005 97.954 224.556 97.5331 224.994 96.979C225.433 96.4249 225.748 95.7165 225.934 94.8748L227.797 86.7105H226.25L225.92 88.2185V88.229ZM225.552 90.2315C225.513 90.691 225.398 91.1258 225.208 91.5256C225.022 91.9254 224.773 92.2761 224.475 92.5707C224.177 92.8653 223.834 93.1003 223.455 93.2686C223.076 93.4369 222.673 93.5211 222.259 93.5211C221.845 93.5211 221.473 93.4299 221.182 93.2441C220.891 93.0617 220.674 92.8057 220.534 92.483C220.393 92.1569 220.344 91.7781 220.379 91.3538C220.418 90.9259 220.527 90.5086 220.709 90.1088C220.891 89.709 221.137 89.3478 221.438 89.0286C221.74 88.713 222.084 88.457 222.466 88.2711C222.848 88.0853 223.258 87.9941 223.693 87.9941C224.128 87.9941 224.475 88.0888 224.766 88.2781C225.058 88.4675 225.271 88.7305 225.405 89.0637C225.538 89.4004 225.587 89.7897 225.549 90.2245L225.552 90.2315Z" fill="#0056A1"/>
<path d="M244.272 83.3052H242.996L235.873 95.015L235.817 95.1062H237.598L239.212 92.3567H244.009L244.367 95.1062H246.068L244.279 83.3543L244.272 83.3052ZM243.823 90.9119H240.06L243.14 85.6584L243.82 90.9119H243.823Z" fill="#0056A1"/>
<path d="M249.649 83.3052L249.186 85.3533H250.985L251.448 83.3052H249.649Z" fill="#0056A1"/>
<path d="M247.11 95.0325L247.096 95.1027H248.625L250.547 86.7209H249L247.11 95.0325Z" fill="#0056A1"/>
<path d="M257.063 86.6824C256.491 86.5211 255.832 86.5631 255.088 86.8612C254.639 87.0401 254.215 87.3101 253.826 87.6608C253.812 87.6714 253.801 87.6854 253.787 87.6959L254.011 86.721H252.465L250.543 95.1027H252.09L252.97 91.2345C253.11 90.6593 253.296 90.1263 253.524 89.6563C253.752 89.1864 254.057 88.8111 254.432 88.5341C254.808 88.2605 255.285 88.1203 255.846 88.1203C255.996 88.1203 256.158 88.1378 256.323 88.1764C256.484 88.2149 256.624 88.264 256.736 88.3307L256.782 88.3587L257.785 87.0401L257.732 87.005C257.508 86.8577 257.28 86.7525 257.056 86.6894L257.063 86.6824Z" fill="#0056A1"/>
<path d="M106.234 84.0276C105.663 83.5471 104.8 83.3016 103.664 83.3016H100.16L97.4878 95.029L97.4702 95.0992H99.0519L100.195 90.0736H102.205C103.113 90.0736 103.923 89.9158 104.607 89.6072C105.294 89.2951 105.852 88.8392 106.259 88.2535C106.666 87.6678 106.908 86.9524 106.981 86.1283C107.062 85.22 106.809 84.5116 106.238 84.0276H106.234ZM102.292 88.6498H100.521L101.416 84.75H103.274C104.018 84.75 104.575 84.8728 104.926 85.1183C105.277 85.3602 105.424 85.7285 105.379 86.2475C105.312 87.0085 105 87.6012 104.449 88.0185C103.895 88.4394 103.169 88.6498 102.296 88.6498H102.292Z" fill="#0056A1"/>
<path d="M106.714 93.1738C106.697 93.2545 106.679 93.3316 106.669 93.4123C106.655 93.4929 106.648 93.5666 106.641 93.6332C106.595 94.1628 106.704 94.5661 106.967 94.8361C107.226 95.1027 107.598 95.2394 108.072 95.2394C108.229 95.2394 108.405 95.2254 108.605 95.1974C108.801 95.1693 109.001 95.1202 109.197 95.0536L109.232 95.043L109.559 93.6367L109.464 93.6648C109.317 93.7104 109.18 93.7455 109.057 93.7735C108.938 93.8016 108.815 93.8156 108.699 93.8156C108.538 93.8156 108.415 93.777 108.342 93.6999C108.268 93.6227 108.236 93.4859 108.254 93.293L108.268 93.1422C108.268 93.1037 108.278 93.0616 108.293 93.023L110.477 83.3823L110.495 83.3121H108.966L106.721 93.1808L106.714 93.1738Z" fill="#0056A1"/>
<path d="M116.668 90.8451C116.506 91.5395 116.289 92.1182 116.012 92.5671C115.738 93.0125 115.416 93.3456 115.051 93.5596C114.686 93.77 114.265 93.8787 113.799 93.8787C113.333 93.8787 112.978 93.7524 112.761 93.5034C112.544 93.2544 112.459 92.8441 112.508 92.283C112.523 92.1427 112.537 92.0165 112.558 91.9113C112.579 91.8061 112.6 91.6833 112.621 91.5536L113.722 86.7244H112.175L110.99 91.9709C110.972 92.0726 110.955 92.1673 110.937 92.2585L110.927 92.3216C110.906 92.4373 110.888 92.5566 110.878 92.6793C110.804 93.507 110.983 94.1487 111.4 94.5836C111.818 95.0185 112.452 95.2359 113.28 95.2359C113.946 95.2359 114.578 95.0781 115.153 94.766C115.419 94.6222 115.672 94.4328 115.907 94.2013L115.7 95.0991H117.232L119.154 86.7174H117.608L116.671 90.8381L116.668 90.8451Z" fill="#0056A1"/>
<path d="M131.299 86.9489C130.948 86.7069 130.46 86.5876 129.847 86.5876C129.349 86.5876 128.879 86.6788 128.451 86.8612C128.023 87.0436 127.623 87.3241 127.269 87.6959C127.199 87.7695 127.129 87.8502 127.055 87.9413C127.041 87.8958 127.027 87.8537 127.01 87.8116C126.845 87.4118 126.582 87.1032 126.227 86.8963C125.873 86.6894 125.431 86.5876 124.909 86.5876C124.548 86.5876 124.172 86.6543 123.79 86.784C123.408 86.9138 123.04 87.1382 122.689 87.4504C122.605 87.524 122.524 87.6082 122.44 87.7064L122.657 86.7244H121.128L119.206 95.1061H120.753L121.767 90.6663C121.966 89.779 122.303 89.0916 122.766 88.6287C123.229 88.1693 123.766 87.9343 124.358 87.9343C124.786 87.9343 125.098 88.0606 125.291 88.3061C125.488 88.5551 125.561 88.9584 125.516 89.4985C125.505 89.6212 125.491 89.7369 125.477 89.8457C125.463 89.9544 125.438 90.0701 125.407 90.1928L124.281 95.1061H125.828L126.841 90.6663C127.041 89.779 127.367 89.0916 127.82 88.6287C128.265 88.1693 128.798 87.9378 129.401 87.9378C129.868 87.9378 130.194 88.0746 130.369 88.3482C130.548 88.6287 130.615 89.032 130.569 89.5511C130.555 89.7054 130.541 89.8421 130.524 89.9579C130.51 90.0701 130.485 90.1858 130.45 90.3121L129.352 95.1061H130.881L132.032 90.0631C132.063 89.9403 132.091 89.8176 132.105 89.6948C132.123 89.5756 132.137 89.4423 132.147 89.2986C132.189 88.8006 132.147 88.3447 132.018 87.9343C131.888 87.5205 131.642 87.1908 131.292 86.9489H131.299Z" fill="#0056A1"/>
<path d="M140.396 87.0226C139.922 86.735 139.354 86.5877 138.709 86.5877C138.19 86.5877 137.695 86.6824 137.243 86.8683C136.791 87.0542 136.387 87.3172 136.033 87.6433C136.008 87.6644 135.987 87.6889 135.966 87.7135L136.938 83.3753L136.955 83.3052H135.426L132.754 95.0326L132.736 95.1027H134.269L134.518 93.9875C134.546 94.0401 134.574 94.0892 134.602 94.1383C134.823 94.4925 135.132 94.7661 135.518 94.9554C135.903 95.1413 136.373 95.2395 136.917 95.2395C137.583 95.2395 138.204 95.0922 138.768 94.8046C139.33 94.517 139.828 94.1243 140.252 93.6403C140.676 93.1563 141.02 92.6092 141.276 92.0131C141.528 91.4169 141.686 90.8031 141.739 90.1859C141.802 89.4529 141.714 88.8077 141.472 88.2711C141.23 87.731 140.869 87.3137 140.392 87.0226H140.396ZM140.189 90.2806C140.15 90.7155 140.042 91.1503 139.863 91.5677C139.684 91.985 139.442 92.3673 139.144 92.7074C138.846 93.0441 138.498 93.3177 138.113 93.514C137.727 93.7104 137.299 93.8086 136.84 93.8086C136.429 93.8086 136.072 93.7139 135.784 93.5246C135.493 93.3352 135.279 93.0687 135.149 92.7285C135.016 92.3883 134.97 91.9885 135.009 91.5396C135.048 91.0907 135.16 90.6523 135.339 90.235C135.518 89.8177 135.756 89.4354 136.051 89.0952C136.342 88.7551 136.685 88.485 137.075 88.2886C137.46 88.0922 137.888 87.994 138.348 87.994C138.768 87.994 139.126 88.0887 139.41 88.2781C139.694 88.4675 139.908 88.734 140.049 89.0742C140.185 89.4144 140.238 89.8212 140.196 90.2771L140.189 90.2806Z" fill="#0056A1"/>
<path d="M142.237 95.0325L142.223 95.1027H143.752L145.673 86.7209H144.127L142.237 95.0325Z" fill="#0056A1"/>
<path d="M144.776 83.3052L144.313 85.3533H146.112L146.575 83.3052H144.776Z" fill="#0056A1"/>
<path d="M151.562 86.5876C151.12 86.5876 150.692 86.6578 150.285 86.7911C149.879 86.9278 149.496 87.1347 149.156 87.4153C149.079 87.4784 149.009 87.5451 148.935 87.6187L149.142 86.7209H147.613L145.691 95.1026H147.238L148.174 90.9819C148.42 89.9368 148.791 89.1583 149.275 88.6673C149.756 88.1798 150.352 87.9343 151.046 87.9343C151.516 87.9343 151.867 88.0641 152.081 88.3166C152.298 88.5726 152.383 88.9794 152.337 89.53C152.323 89.6738 152.309 89.8001 152.295 89.9123C152.281 90.021 152.256 90.1367 152.221 90.277L151.12 95.1061H152.667L153.852 89.8632C153.884 89.7404 153.912 89.6212 153.926 89.502C153.94 89.3897 153.954 89.2705 153.964 89.1478C154.038 88.3201 153.859 87.6783 153.442 87.2435C153.024 86.8086 152.39 86.5876 151.562 86.5876Z" fill="#0056A1"/>
<path d="M162.108 88.2289C161.974 87.8221 161.757 87.4749 161.459 87.1979C161.02 86.7946 160.407 86.5876 159.635 86.5876C159.036 86.5876 158.464 86.7209 157.931 86.9874C157.401 87.254 156.924 87.6152 156.514 88.0676C156.104 88.5165 155.763 89.039 155.504 89.6177C155.244 90.1963 155.087 90.8136 155.031 91.4554C154.971 92.1217 155.048 92.7284 155.255 93.258C155.462 93.791 155.799 94.2189 156.247 94.524C156.696 94.8291 157.254 94.9869 157.899 94.9869C158.576 94.9869 159.225 94.8081 159.828 94.4574C160.214 94.2329 160.565 93.9278 160.873 93.549L160.603 94.78C160.456 95.4569 160.21 95.9864 159.877 96.3511C159.541 96.7159 159.158 96.9719 158.737 97.1122C158.313 97.2559 157.889 97.3261 157.475 97.3261C156.914 97.3261 156.458 97.1718 156.121 96.8702C155.785 96.5651 155.55 96.1793 155.427 95.7234L155.406 95.6462L154.052 96.5054L154.07 96.551C154.213 96.9578 154.431 97.3261 154.715 97.6417C154.999 97.9608 155.367 98.2098 155.802 98.3852C156.237 98.5605 156.756 98.6482 157.342 98.6482C158.162 98.6482 158.902 98.5079 159.548 98.2309C160.193 97.9538 160.74 97.533 161.178 96.9789C161.617 96.4248 161.932 95.7164 162.118 94.8747L163.98 86.7104H162.434L162.104 88.2184L162.108 88.2289ZM161.739 90.2314C161.701 90.6908 161.585 91.1257 161.396 91.5255C161.21 91.9253 160.961 92.276 160.663 92.5706C160.365 92.8652 160.021 93.1001 159.642 93.2685C159.263 93.4368 158.86 93.521 158.446 93.521C158.033 93.521 157.661 93.4298 157.37 93.2439C157.079 93.0616 156.861 92.8056 156.721 92.4829C156.581 92.1568 156.532 91.778 156.567 91.3537C156.605 90.9258 156.714 90.5085 156.896 90.1087C157.079 89.7089 157.324 89.3477 157.626 89.0285C157.927 88.7129 158.274 88.4569 158.653 88.271C159.036 88.0851 159.446 87.994 159.881 87.994C160.316 87.994 160.663 88.0886 160.954 88.278C161.245 88.4674 161.459 88.7304 161.592 89.0636C161.725 89.4003 161.774 89.7895 161.736 90.2279L161.739 90.2314Z" fill="#0056A1"/>
<path d="M270 86.3668C270.442 85.8407 270.972 85.4129 271.575 85.1007C272.178 84.7886 272.866 84.6308 273.623 84.6308C274.433 84.6308 275.092 84.8342 275.587 85.2305C276.078 85.6268 276.387 86.2054 276.495 86.9454L276.506 87.0121L278.07 86.5421L278.063 86.4895C277.905 85.4514 277.453 84.6203 276.716 84.0171C275.98 83.4139 274.994 83.1088 273.791 83.1088C272.827 83.1088 271.926 83.3087 271.116 83.7014C270.305 84.0942 269.59 84.6343 268.987 85.3077C268.384 85.981 267.896 86.756 267.535 87.6118C267.174 88.4675 266.949 89.3723 266.869 90.3016C266.781 91.3116 266.893 92.2024 267.205 92.9424C267.517 93.6859 268.012 94.275 268.678 94.6854C269.341 95.0957 270.158 95.3061 271.102 95.3061C271.631 95.3061 272.161 95.2289 272.68 95.0781C273.199 94.9273 273.697 94.6784 274.153 94.3382C274.419 94.1418 274.668 93.9033 274.9 93.6263L274.707 95.1027H276.113L277.516 88.9199L277.533 88.8497H273.153L272.827 90.2946H275.759C275.601 90.8943 275.384 91.4098 275.117 91.8202C274.808 92.2971 274.444 92.6829 274.037 92.9669C273.627 93.251 273.192 93.4614 272.736 93.5877C272.28 93.7139 271.82 93.7771 271.372 93.7771C270.355 93.7771 269.583 93.4614 269.078 92.8442C268.569 92.2235 268.363 91.3502 268.457 90.256C268.52 89.5371 268.685 88.8357 268.945 88.1694C269.208 87.503 269.562 86.8998 270.007 86.3703L270 86.3668Z" fill="#0056A1"/>
<path d="M285.087 87.0506C284.638 86.7455 284.018 86.5876 283.25 86.5876C282.562 86.5876 281.924 86.7349 281.356 87.0295C280.788 87.3206 280.29 87.7204 279.869 88.2114C279.451 88.6989 279.115 89.253 278.869 89.8562C278.627 90.4559 278.473 91.0801 278.42 91.7079C278.364 92.3637 278.438 92.9634 278.638 93.4929C278.841 94.026 279.192 94.4574 279.683 94.7695C280.17 95.0816 280.812 95.2394 281.591 95.2394C282.254 95.2394 282.878 95.1272 283.442 94.9098C284.007 94.6888 284.582 94.3346 285.154 93.8506L285.203 93.8086L284.284 92.781L284.238 92.8231C283.856 93.1633 283.467 93.4193 283.074 93.5806C282.685 93.7454 282.236 93.8261 281.745 93.8261C281.107 93.8261 280.623 93.6507 280.311 93.3C279.999 92.9493 279.869 92.4514 279.921 91.8096L279.939 91.6097C279.942 91.5571 279.953 91.5045 279.963 91.4519H285.904L285.918 91.4098C285.992 91.2064 286.059 90.9609 286.118 90.6803C286.178 90.3998 286.216 90.1508 286.234 89.9368C286.287 89.3371 286.22 88.7795 286.038 88.278C285.855 87.773 285.533 87.3592 285.084 87.0541L285.087 87.0506ZM280.226 90.256C280.363 89.8456 280.563 89.4634 280.826 89.1197C281.103 88.755 281.443 88.4569 281.84 88.2324C282.233 88.0115 282.674 87.8958 283.155 87.8958C283.6 87.8958 283.951 87.9834 284.203 88.1553C284.456 88.3271 284.638 88.5516 284.744 88.8251C284.849 89.1022 284.887 89.3932 284.863 89.6948C284.849 89.8667 284.831 90.0105 284.81 90.1262L284.786 90.256H280.23H280.226Z" fill="#0056A1"/>
<path d="M292.564 86.5876C292.122 86.5876 291.694 86.6578 291.288 86.7911C290.881 86.9278 290.499 87.1347 290.158 87.4153C290.081 87.4784 290.011 87.5451 289.937 87.6187L290.144 86.7209H288.615L286.693 95.1026H288.24L289.176 90.9819C289.422 89.9368 289.794 89.1583 290.278 88.6673C290.758 88.1798 291.354 87.9343 292.049 87.9343C292.519 87.9343 292.869 88.0641 293.083 88.3166C293.301 88.5726 293.385 88.9794 293.339 89.53C293.325 89.6738 293.311 89.8001 293.297 89.9123C293.283 90.021 293.259 90.1437 293.224 90.277L292.122 95.1061H293.669L294.854 89.8632C294.889 89.7369 294.914 89.6177 294.928 89.502C294.942 89.3897 294.956 89.2705 294.967 89.1478C295.04 88.3201 294.861 87.6783 294.444 87.2435C294.027 86.8086 293.392 86.5876 292.564 86.5876Z" fill="#0056A1"/>
<path d="M302.647 87.0506C302.198 86.7455 301.577 86.5876 300.809 86.5876C300.122 86.5876 299.484 86.7349 298.916 87.0295C298.347 87.3206 297.849 87.7204 297.429 88.2079C297.011 88.6954 296.675 89.2495 296.429 89.8527C296.187 90.4524 296.033 91.0766 295.98 91.7044C295.924 92.3567 295.998 92.9599 296.198 93.4894C296.401 94.0225 296.752 94.4538 297.243 94.766C297.73 95.0781 298.372 95.2359 299.15 95.2359C299.813 95.2359 300.438 95.1237 301.002 94.9062C301.567 94.6853 302.142 94.3311 302.714 93.8471L302.763 93.8051L301.844 92.7775L301.798 92.8196C301.416 93.1598 301.027 93.4158 300.634 93.5771C300.245 93.7419 299.796 93.8226 299.305 93.8226C298.667 93.8226 298.183 93.6472 297.87 93.2965C297.558 92.9458 297.429 92.4478 297.481 91.8061L297.499 91.6062C297.502 91.5536 297.513 91.501 297.523 91.4484H303.464L303.478 91.4063C303.552 91.2029 303.618 90.9574 303.678 90.6768C303.738 90.3962 303.776 90.1437 303.794 89.9333C303.846 89.3336 303.78 88.776 303.597 88.2745C303.415 87.7695 303.092 87.3557 302.643 87.0506H302.647ZM297.786 90.256C297.923 89.8456 298.123 89.4634 298.386 89.1197C298.663 88.755 299.003 88.4569 299.399 88.2324C299.792 88.0115 300.234 87.8958 300.715 87.8958C301.16 87.8958 301.511 87.9834 301.763 88.1553C302.016 88.3271 302.198 88.5516 302.303 88.8251C302.408 89.0987 302.451 89.3932 302.423 89.6948C302.408 89.8667 302.391 90.0105 302.37 90.1262L302.345 90.256H297.79H297.786Z" fill="#0056A1"/>
<path d="M311.428 86.998C311.201 86.8507 310.976 86.742 310.752 86.6824C310.18 86.5211 309.521 86.5631 308.777 86.8612C308.328 87.0401 307.904 87.3101 307.515 87.6608C307.501 87.6714 307.49 87.6854 307.476 87.6959L307.701 86.721H306.154L304.232 95.1027H305.779L306.659 91.231C306.799 90.6558 306.985 90.1263 307.213 89.6528C307.438 89.1829 307.746 88.8076 308.121 88.5306C308.497 88.257 308.974 88.1167 309.538 88.1167C309.689 88.1167 309.85 88.1343 310.015 88.1729C310.176 88.2114 310.317 88.2605 310.429 88.3272L310.475 88.3552L311.478 87.0366L311.425 87.0015L311.428 86.998Z" fill="#0056A1"/>
<path d="M318.183 87.8362C318.158 87.7906 318.13 87.745 318.102 87.7029C317.881 87.3627 317.573 87.0857 317.187 86.8893C316.801 86.6894 316.328 86.5912 315.788 86.5912C315.146 86.5912 314.536 86.728 313.981 87.0015C313.427 87.2715 312.929 87.6503 312.498 88.1237C312.067 88.5972 311.719 89.1373 311.46 89.7335C311.2 90.3261 311.039 90.9609 310.983 91.6132C310.923 92.3111 311 92.9424 311.221 93.4824C311.439 94.026 311.79 94.4609 312.263 94.773C312.736 95.0851 313.319 95.2429 313.999 95.2429C314.518 95.2429 315.005 95.1553 315.451 94.9799C315.896 94.8046 316.303 94.5486 316.661 94.2119C316.685 94.1873 316.71 94.1663 316.734 94.1382L316.517 95.1097H318.046L319.936 86.7981L319.954 86.728H318.439L318.183 87.8432V87.8362ZM317.702 90.2665C317.664 90.7049 317.559 91.1363 317.383 91.5536C317.211 91.9709 316.973 92.3532 316.682 92.6934C316.391 93.03 316.047 93.3071 315.658 93.507C315.272 93.7069 314.844 93.8086 314.385 93.8086C313.964 93.8086 313.599 93.7174 313.308 93.5315C313.017 93.3492 312.8 93.0826 312.663 92.746C312.522 92.4058 312.473 91.999 312.515 91.5431C312.554 91.1047 312.663 90.6663 312.845 90.2455C313.024 89.8246 313.262 89.4424 313.554 89.1057C313.845 88.7725 314.192 88.5025 314.588 88.2991C314.981 88.0992 315.412 87.9975 315.868 87.9975C316.289 87.9975 316.647 88.0922 316.934 88.2816C317.218 88.4709 317.429 88.734 317.562 89.0671C317.695 89.4038 317.741 89.8071 317.702 90.263V90.2665Z" fill="#0056A1"/>
<path d="M322.795 92.6057L323.857 87.9485H325.776L326.053 86.721H324.138L324.836 83.6559L323.086 84.5291L322.584 86.721H320.887L320.592 87.9485H322.304L321.178 92.8863C321.157 92.974 321.143 93.0546 321.133 93.1353C321.119 93.2195 321.108 93.3036 321.101 93.3843C321.066 93.8086 321.119 94.1593 321.262 94.4294C321.406 94.7029 321.62 94.9063 321.897 95.0396C322.171 95.1729 322.497 95.2395 322.861 95.2395C323.04 95.2395 323.244 95.222 323.461 95.1869C323.679 95.1518 323.9 95.1062 324.113 95.0501L324.152 95.0396L324.454 93.728L324.355 93.763C324.163 93.8297 323.977 93.8753 323.808 93.9033C323.293 93.984 322.963 93.9454 322.826 93.742C322.732 93.6017 322.693 93.3878 322.718 93.1002C322.725 93.0126 322.735 92.9284 322.749 92.8442C322.763 92.7636 322.777 92.6829 322.795 92.6057Z" fill="#0056A1"/>
<path d="M332.636 87.0471C332.131 86.742 331.506 86.5876 330.784 86.5876C330.061 86.5876 329.451 86.7244 328.862 86.9945C328.276 87.2645 327.75 87.6362 327.298 88.0957C326.845 88.5551 326.477 89.0881 326.2 89.6808C325.923 90.27 325.755 90.9013 325.699 91.5536C325.636 92.276 325.73 92.9213 325.983 93.4684C326.235 94.019 326.621 94.4538 327.133 94.766C327.645 95.0781 328.262 95.2359 328.974 95.2359C329.686 95.2359 330.286 95.1026 330.868 94.8361C331.45 94.5731 331.976 94.2048 332.432 93.7419C332.888 93.2825 333.26 92.7424 333.537 92.1392C333.814 91.5395 333.986 90.8977 334.042 90.2349C334.105 89.5125 334.014 88.8707 333.765 88.3271C333.516 87.7835 333.137 87.3522 332.628 87.0471H332.636ZM332.537 90.1999C332.499 90.6593 332.387 91.1117 332.211 91.5465C332.036 91.9779 331.797 92.3707 331.499 92.7179C331.201 93.0616 330.85 93.3421 330.458 93.549C330.065 93.756 329.619 93.8612 329.129 93.8612C328.469 93.8612 327.964 93.6578 327.628 93.2615C327.291 92.8617 327.151 92.3076 327.21 91.6132C327.249 91.1748 327.354 90.7364 327.522 90.3086C327.691 89.8807 327.926 89.4844 328.22 89.1302C328.515 88.776 328.869 88.4884 329.272 88.2745C329.676 88.0641 330.135 87.9554 330.637 87.9554C331.296 87.9554 331.797 88.1588 332.131 88.5551C332.464 88.9549 332.6 89.509 332.541 90.2069L332.537 90.1999Z" fill="#0056A1"/>
<path d="M341.736 86.998C341.508 86.8507 341.283 86.742 341.059 86.6824C340.487 86.5211 339.828 86.5631 339.084 86.8612C338.635 87.0401 338.211 87.3101 337.822 87.6608C337.808 87.6714 337.797 87.6854 337.783 87.6959L338.008 86.721H336.461L334.539 95.1027H336.086L336.966 91.231C337.106 90.6558 337.292 90.1263 337.52 89.6528C337.745 89.1829 338.053 88.8076 338.429 88.5306C338.804 88.257 339.281 88.1167 339.845 88.1167C339.996 88.1167 340.158 88.1343 340.322 88.1729C340.484 88.2114 340.624 88.2605 340.736 88.3272L340.782 88.3552L341.785 87.0366L341.732 87.0015L341.736 86.998Z" fill="#0056A1"/>
<path d="M346.123 90.3682C345.709 90.2174 345.285 90.0911 344.861 89.9894C344.335 89.8562 343.952 89.7194 343.724 89.5791C343.51 89.4458 343.416 89.26 343.437 89.0145C343.468 88.6533 343.658 88.3762 344.012 88.1693C344.37 87.9589 344.791 87.8502 345.257 87.8502C345.671 87.8502 346.032 87.9308 346.33 88.0851C346.625 88.2394 346.839 88.5095 346.968 88.8812L346.993 88.9479L348.108 88.278L348.091 88.2324C347.908 87.6959 347.575 87.282 347.098 87.005C346.625 86.7279 346.057 86.5876 345.411 86.5876C344.766 86.5876 344.222 86.6999 343.724 86.9208C343.223 87.1418 342.813 87.4504 342.507 87.8361C342.199 88.2254 342.02 88.6813 341.974 89.1933C341.943 89.537 341.992 89.8351 342.115 90.0701C342.237 90.3051 342.416 90.505 342.644 90.6593C342.869 90.8136 343.125 90.9398 343.402 91.0415C343.682 91.1432 343.966 91.2344 344.247 91.3116C344.636 91.4098 344.962 91.515 345.218 91.6202C345.467 91.7219 345.653 91.8481 345.776 91.9884C345.892 92.1252 345.941 92.3076 345.923 92.525C345.899 92.8056 345.794 93.044 345.597 93.258C345.401 93.4719 345.152 93.6367 344.85 93.7524C344.549 93.8647 344.212 93.9243 343.851 93.9243C343.307 93.9243 342.862 93.798 342.529 93.549C342.192 93.3 341.967 92.9669 341.852 92.5566L341.831 92.4794L340.582 93.3071L340.6 93.3527C340.719 93.6718 340.915 93.9769 341.178 94.268C341.441 94.5591 341.792 94.794 342.209 94.9694C342.63 95.1447 343.139 95.2324 343.724 95.2324C344.401 95.2324 345.019 95.1097 345.559 94.8677C346.099 94.6257 346.548 94.2785 346.888 93.8436C347.228 93.4053 347.424 92.8827 347.477 92.2935C347.522 91.7535 347.414 91.3291 347.151 91.0345C346.891 90.7434 346.548 90.519 346.13 90.3647L346.123 90.3682Z" fill="#0056A1"/>
<defs>
<radialGradient id="paint0_radial_12_544" cx="0" cy="0" r="1" gradientUnits="userSpaceOnUse" gradientTransform="translate(67.5804 43.3798) rotate(180) scale(52.5734 26.2867)">
<stop stop-color="#73CDF1"/>
<stop offset="0.16" stop-color="#67C7ED"/>
<stop offset="0.45" stop-color="#49B9E5"/>
<stop offset="0.82" stop-color="#19A3D8"/>
<stop offset="1" stop-color="#0097D1"/>
</radialGradient>
<radialGradient id="paint1_radial_12_544" cx="0" cy="0" r="1" gradientUnits="userSpaceOnUse" gradientTransform="translate(82.6289 2.07404) rotate(-180) scale(43.4517 26.071)">
<stop stop-color="#007FC3"/>
<stop offset="0.3" stop-color="#007ABE"/>
<stop offset="0.63" stop-color="#006EB1"/>
<stop offset="0.97" stop-color="#00599C"/>
<stop offset="1" stop-color="#00579A"/>
</radialGradient>
<radialGradient id="paint2_radial_12_544" cx="0" cy="0" r="1" gradientUnits="userSpaceOnUse" gradientTransform="translate(-9.29705 112.427) scale(66.8083 66.8083)">
<stop stop-color="#F5CF55"/>
<stop offset="0.5" stop-color="#EF7524"/>
<stop offset="1" stop-color="#CF2A29"/>
</radialGradient>
<linearGradient id="paint3_linear_12_544" x1="121.749" y1="26.4006" x2="121.749" y2="75.4916" gradientUnits="userSpaceOnUse">
<stop offset="0.21" stop-color="#007FC3"/>
<stop offset="0.41" stop-color="#007ABE"/>
<stop offset="0.62" stop-color="#006EB1"/>
<stop offset="0.84" stop-color="#00599C"/>
<stop offset="0.86" stop-color="#00579A"/>
</linearGradient>
<linearGradient id="paint4_linear_12_544" x1="150.724" y1="-4.79326e-05" x2="150.724" y2="76.0352" gradientUnits="userSpaceOnUse">
<stop offset="0.21" stop-color="#007FC3"/>
<stop offset="0.41" stop-color="#007ABE"/>
<stop offset="0.62" stop-color="#006EB1"/>
<stop offset="0.84" stop-color="#00599C"/>
<stop offset="0.86" stop-color="#00579A"/>
</linearGradient>
<linearGradient id="paint5_linear_12_544" x1="176.798" y1="40.2182" x2="176.798" y2="76.0352" gradientUnits="userSpaceOnUse">
<stop offset="0.21" stop-color="#007FC3"/>
<stop offset="0.41" stop-color="#007ABE"/>
<stop offset="0.62" stop-color="#006EB1"/>
<stop offset="0.84" stop-color="#00599C"/>
<stop offset="0.86" stop-color="#00579A"/>
</linearGradient>
<linearGradient id="paint6_linear_12_544" x1="211.318" y1="39.6747" x2="211.318" y2="76.0352" gradientUnits="userSpaceOnUse">
<stop offset="0.21" stop-color="#007FC3"/>
<stop offset="0.41" stop-color="#007ABE"/>
<stop offset="0.62" stop-color="#006EB1"/>
<stop offset="0.84" stop-color="#00599C"/>
<stop offset="0.86" stop-color="#00579A"/>
</linearGradient>
<linearGradient id="paint7_linear_12_544" x1="248.811" y1="26.4006" x2="248.811" y2="75.4951" gradientUnits="userSpaceOnUse">
<stop offset="0.21" stop-color="#007FC3"/>
<stop offset="0.41" stop-color="#007ABE"/>
<stop offset="0.62" stop-color="#006EB1"/>
<stop offset="0.84" stop-color="#00599C"/>
<stop offset="0.86" stop-color="#00579A"/>
</linearGradient>
<linearGradient id="paint8_linear_12_544" x1="286.224" y1="39.6747" x2="286.224" y2="76.0352" gradientUnits="userSpaceOnUse">
<stop offset="0.21" stop-color="#007FC3"/>
<stop offset="0.41" stop-color="#007ABE"/>
<stop offset="0.62" stop-color="#006EB1"/>
<stop offset="0.84" stop-color="#00599C"/>
<stop offset="0.86" stop-color="#00579A"/>
</linearGradient>
<linearGradient id="paint9_linear_12_544" x1="318.267" y1="39.6746" x2="318.267" y2="76.0352" gradientUnits="userSpaceOnUse">
<stop offset="0.21" stop-color="#007FC3"/>
<stop offset="0.41" stop-color="#007ABE"/>
<stop offset="0.62" stop-color="#006EB1"/>
<stop offset="0.84" stop-color="#00599C"/>
<stop offset="0.86" stop-color="#00579A"/>
</linearGradient>
<linearGradient id="paint10_linear_12_544" x1="348.105" y1="27.2844" x2="348.105" y2="76.0352" gradientUnits="userSpaceOnUse">
<stop offset="0.21" stop-color="#007FC3"/>
<stop offset="0.41" stop-color="#007ABE"/>
<stop offset="0.62" stop-color="#006EB1"/>
<stop offset="0.84" stop-color="#00599C"/>
<stop offset="0.86" stop-color="#00579A"/>
</linearGradient>
</defs>
</svg>
